<svg width="451" height="356" viewBox="0 0 451 356" fill="none" xmlns="http://www.w3.org/2000/svg">
<g filter="url(#filter0_d_105_17)">
<path fill-rule="evenodd" clip-rule="evenodd" d="M88.3331 320.599C132.075 345.699 182.308 349.227 226.7 334.497C283.281 343.069 341.429 317.615 371.241 265.872C373.464 262.013 375.482 258.091 377.297 254.119C396.076 246.313 413.086 231.794 424.595 211.817C449.945 167.818 439.006 114.008 400.163 91.6295C381.081 80.6357 358.815 79.2725 338.092 85.9474C331.578 80.4832 324.492 75.5076 316.86 71.1106C312.779 68.7597 308.634 66.6268 304.438 64.7083C291.802 49.3674 276.246 35.9959 258.009 25.4891C176.558 -21.4378 72.4874 6.54945 25.5605 88.0004C-21.3163 169.364 6.56111 273.3 87.8108 320.298L88.0717 320.449L88.3331 320.599ZM324.015 251.568C356.321 189.624 346.776 116.111 304.438 64.7083C284.342 55.5203 263.077 51.2499 242.164 51.5037L240.472 39.3126L230.955 14.3842L204.707 18.0271L200.093 34.3525C151.268 17.4693 94.0012 39.7056 65.2626 89.5871C33.1902 145.255 48.7264 214.392 99.8936 244.542L83.222 266.587L60.204 293.507L86.4524 289.864L110.461 262.807L117.28 254.59C129.598 279.605 149.333 301.454 175.473 316.515C191.807 325.925 209.178 331.842 226.7 334.497C258.183 324.051 286.729 304.422 307.938 276.793L341.932 272.075L328.631 256.253L324.015 251.568ZM117.28 254.59L155.438 208.609L179.24 180.066L250.021 162.671L255.974 194.656L261.679 235.762L277.62 263.333L298.845 278.055L307.938 276.793C312.483 270.871 316.692 264.582 320.52 257.938C321.735 255.829 322.9 253.705 324.015 251.568L308.067 235.382L288.742 205.253L270.862 167.351L260.299 138.529L250.095 108.648L242.164 51.5037C238.611 51.5468 235.068 51.7205 231.542 52.0229C227.222 48.4517 222.557 45.202 217.557 42.3216C211.907 39.0663 206.063 36.4169 200.093 34.3525L196.243 47.9749L189.637 73.1217L170.854 119.645L150.145 170.475L117.344 221.468L99.8936 244.542C100.181 244.711 100.47 244.88 100.76 245.047C105.76 247.927 110.911 250.333 116.167 252.279C116.531 253.053 116.902 253.823 117.28 254.59Z" fill="#B40B0B"/>
</g>
<defs>
<filter id="filter0_d_105_17" x="0.806091" y="0.734695" width="449.451" height="354.469" filterUnits="userSpaceOnUse" color-interpolation-filters="sRGB">
<feFlood flood-opacity="0" result="BackgroundImageFix"/>
<feColorMatrix in="SourceAlpha" type="matrix" values="0 0 0 0 0 0 0 0 0 0 0 0 0 0 0 0 0 0 127 0" result="hardAlpha"/>
<feOffset dx="5" dy="5"/>
<feGaussianBlur stdDeviation="3.5"/>
<feComposite in2="hardAlpha" operator="out"/>
<feColorMatrix type="matrix" values="0 0 0 0 0 0 0 0 0 0 0 0 0 0 0 0 0 0 0.25 0"/>
<feBlend mode="normal" in2="BackgroundImageFix" result="effect1_dropShadow_105_17"/>
<feBlend mode="normal" in="SourceGraphic" in2="effect1_dropShadow_105_17" result="shape"/>
</filter>
</defs>
</svg>
